<svg xmlns="http://www.w3.org/2000/svg" xmlns:xlink="http://www.w3.org/1999/xlink" width="512" zoomAndPan="magnify" viewBox="0 0 384 191.999996" height="256" preserveAspectRatio="xMidYMid meet" version="1.0"><defs><clipPath id="25bd587c98"><path d="M 0 39.914062 L 383 39.914062 L 383 152 L 0 152 Z M 0 39.914062 " clip-rule="nonzero"/></clipPath></defs><g clip-path="url(#25bd587c98)"><path fill="#ffffff" d="M 16.871094 52.503906 L 16.105469 52.503906 C 16.871094 53.648438 17.25 55.175781 17.632812 55.9375 C 17.632812 55.9375 17.632812 56.320312 17.632812 56.320312 C 18.015625 55.9375 18.394531 55.554688 18.394531 54.410156 C 18.015625 52.503906 16.871094 52.503906 16.871094 52.503906 Z M 378.1875 61.277344 C 375.898438 60.515625 368.269531 59.753906 359.492188 59.753906 C 351.480469 58.988281 322.101562 57.464844 316.378906 57.464844 C 311.417969 57.464844 309.894531 57.464844 309.128906 58.226562 C 308.367188 58.988281 306.078125 60.515625 302.644531 60.515625 C 299.210938 59.753906 288.144531 57.464844 285.472656 57.082031 C 282.421875 56.320312 278.988281 56.320312 277.460938 56.320312 C 275.9375 56.320312 275.171875 56.320312 275.171875 56.320312 L 273.644531 53.265625 L 274.410156 52.503906 C 274.410156 52.503906 273.644531 50.976562 272.882812 50.976562 C 272.121094 50.976562 270.59375 50.976562 270.59375 50.976562 L 263.34375 43.726562 L 261.820312 43.726562 L 171.394531 45.253906 L 171.394531 43.726562 L 172.15625 43.726562 L 172.15625 39.53125 C 172.15625 39.53125 171.394531 39.53125 170.628906 39.53125 C 169.867188 40.292969 169.867188 41.058594 169.867188 41.058594 L 167.960938 41.058594 C 167.960938 41.058594 167.960938 39.53125 166.433594 39.53125 C 164.90625 39.53125 164.144531 41.058594 164.144531 41.058594 L 152.699219 41.058594 C 152.699219 41.058594 152.699219 40.292969 151.171875 40.292969 C 150.410156 40.292969 149.644531 41.058594 149.644531 41.058594 L 145.066406 41.058594 C 145.066406 41.058594 143.542969 41.058594 142.777344 41.820312 C 142.015625 42.582031 142.015625 44.109375 142.015625 44.109375 L 139.726562 44.109375 L 139.726562 43.347656 L 138.960938 43.347656 C 138.199219 43.347656 138.199219 44.109375 138.199219 44.109375 L 93.558594 45.636719 L 92.796875 45.636719 C 92.796875 45.636719 91.269531 45.636719 90.507812 46.398438 C 89.746094 47.160156 89.746094 47.925781 89.746094 47.925781 L 84.019531 47.925781 C 84.019531 47.542969 84.019531 48.304688 84.019531 48.304688 C 84.019531 48.304688 58.078125 49.070312 56.933594 49.070312 C 56.167969 49.070312 55.40625 50.59375 54.640625 51.359375 C 53.878906 52.121094 51.207031 57.082031 49.683594 57.84375 C 48.917969 58.609375 44.722656 61.277344 43.195312 61.277344 C 40.90625 61.277344 19.539062 61.277344 19.539062 61.277344 C 19.539062 61.277344 18.394531 58.609375 17.632812 56.699219 C 17.25 57.082031 16.871094 57.082031 16.871094 57.082031 L 11.910156 57.082031 C 11.910156 57.082031 9.621094 57.082031 9.621094 54.792969 C 9.621094 52.503906 11.910156 52.503906 11.910156 52.503906 L 16.105469 52.503906 C 15.34375 51.359375 14.960938 49.832031 14.960938 49.449219 C 14.199219 48.6875 14.199219 47.925781 14.199219 47.160156 L 14.199219 43.726562 C 13.4375 42.964844 11.910156 42.203125 11.148438 42.203125 C 10.382812 42.203125 7.714844 42.203125 6.1875 42.964844 C 5.425781 43.726562 5.425781 44.492188 5.425781 46.015625 C 5.425781 47.542969 5.425781 58.988281 5.425781 58.988281 C 5.425781 58.988281 4.660156 59.753906 4.660156 60.515625 C 4.660156 61.277344 3.898438 62.042969 3.898438 62.042969 L 0.464844 62.042969 C 0.464844 62.421875 0.464844 62.804688 0.464844 63.566406 C 0.464844 66.621094 1.988281 67 1.988281 67 L 6.949219 67 C 6.949219 67 7.714844 70.433594 9.238281 70.433594 C 10.003906 70.433594 59.984375 69.671875 59.984375 69.671875 C 59.984375 69.671875 59.984375 70.433594 61.511719 70.433594 C 62.273438 70.433594 63.035156 69.671875 63.035156 69.671875 L 93.941406 68.910156 L 95.46875 70.433594 C 95.46875 70.433594 109.964844 70.433594 116.453125 69.671875 C 122.175781 68.910156 130.1875 68.144531 134.382812 68.144531 C 138.582031 68.144531 146.59375 69.671875 150.027344 71.199219 C 153.460938 72.726562 154.988281 73.488281 155.75 74.25 L 159.183594 74.25 C 159.949219 73.488281 162.238281 71.960938 162.617188 71.960938 C 163.382812 71.960938 186.273438 71.960938 186.273438 71.960938 C 186.273438 71.960938 186.273438 73.488281 186.273438 74.25 C 186.273438 75.015625 185.511719 75.777344 185.511719 76.539062 C 185.511719 77.304688 186.273438 77.304688 186.273438 77.304688 C 186.273438 77.304688 185.511719 87.988281 177.117188 101.722656 C 167.960938 117.363281 151.933594 128.429688 151.933594 128.429688 C 151.933594 128.429688 151.171875 129.191406 151.933594 129.191406 L 165.671875 150.175781 C 165.671875 150.175781 167.960938 151.703125 168.722656 151.703125 C 169.484375 151.703125 183.601562 143.691406 200.390625 120.035156 C 214.890625 99.8125 215.269531 78.449219 215.269531 78.449219 L 216.035156 78.449219 L 216.035156 82.644531 L 218.324219 86.460938 L 219.085938 91.421875 L 219.847656 91.421875 L 219.847656 87.222656 C 219.847656 87.222656 220.613281 85.695312 221.375 85.695312 C 222.136719 85.695312 222.902344 85.695312 222.902344 85.695312 C 222.902344 85.695312 223.664062 87.222656 224.429688 87.984375 C 225.191406 88.75 227.480469 89.511719 228.625 89.511719 L 242.359375 89.511719 C 243.886719 89.511719 245.414062 87.984375 245.792969 87.222656 C 246.558594 86.460938 247.320312 84.933594 247.320312 84.933594 C 247.320312 84.933594 250.753906 85.695312 251.515625 86.460938 C 252.28125 87.988281 265.253906 105.917969 266.015625 107.445312 C 266.777344 108.207031 266.777344 109.734375 266.777344 110.496094 C 266.777344 112.785156 266.777344 113.929688 268.304688 114.695312 C 269.832031 115.457031 277.082031 115.457031 278.226562 115.457031 C 280.515625 114.695312 285.472656 112.40625 286.238281 108.972656 C 287 105.539062 286.238281 104.773438 285.472656 102.484375 C 283.949219 100.195312 274.792969 86.078125 273.265625 83.789062 C 271.738281 80.738281 270.976562 78.828125 272.5 77.304688 C 274.027344 75.777344 274.792969 75.777344 274.792969 75.777344 L 279.75 75.777344 L 332.785156 95.234375 L 346.519531 99.433594 C 346.519531 99.433594 348.046875 100.195312 349.953125 100.957031 L 352.242188 101.722656 C 359.492188 104.773438 371.703125 108.972656 373.226562 109.734375 L 379.714844 109.734375 C 381.242188 109.734375 382.003906 108.972656 382.003906 107.445312 C 382.003906 106.683594 382.765625 66.621094 382.765625 65.09375 C 382.003906 63.566406 380.476562 62.042969 378.1875 61.277344 Z M 46.25 66.238281 L 22.59375 66.238281 L 21.828125 65.476562 L 46.25 65.476562 Z M 64.945312 65.476562 L 63.417969 65.476562 L 63.417969 64.710938 L 64.945312 64.710938 Z M 87.074219 65.476562 L 66.851562 65.476562 L 66.851562 64.710938 L 87.074219 64.710938 Z M 87.074219 55.554688 C 87.074219 56.320312 87.074219 57.84375 87.074219 57.84375 L 66.851562 57.84375 L 66.851562 54.792969 L 87.074219 54.792969 Z M 246.175781 82.644531 C 246.175781 84.933594 243.125 85.695312 242.742188 86.078125 C 241.980469 86.839844 232.820312 86.078125 229.769531 86.078125 C 226.335938 86.078125 226.335938 85.316406 224.808594 84.550781 C 223.28125 85.316406 223.28125 83.027344 223.28125 83.027344 L 223.28125 71.199219 L 234.730469 71.960938 C 234.730469 71.960938 234.730469 72.726562 237.019531 72.726562 C 237.78125 72.726562 239.308594 74.25 240.070312 75.015625 C 240.832031 76.539062 240.832031 78.066406 240.070312 79.210938 C 238.925781 81.5 237.019531 82.644531 235.492188 82.644531 C 234.730469 82.644531 234.730469 83.40625 235.492188 83.40625 C 236.253906 83.40625 238.925781 82.644531 240.453125 80.355469 C 242.742188 78.066406 241.980469 75.394531 241.980469 75.394531 C 241.980469 75.394531 243.503906 75.015625 244.269531 75.015625 C 245.792969 74.25 246.558594 72.726562 246.558594 72.726562 C 246.558594 72.726562 246.175781 79.210938 246.175781 82.644531 Z M 246.175781 82.644531 " fill-opacity="1" fill-rule="nonzero"/></g></svg>