<svg xmlns="http://www.w3.org/2000/svg" xmlns:xlink="http://www.w3.org/1999/xlink" width="1080" zoomAndPan="magnify" viewBox="0 0 810 809.999993" height="1080" preserveAspectRatio="xMidYMid meet" version="1.0"><path fill="#ffffff" d="M 383.550781 809.492188 C 304.878906 805.414062 226.953125 777.359375 163.925781 730.421875 C 146.988281 717.808594 134.714844 707.152344 118.796875 691.230469 C 85.441406 657.878906 60.523438 622.898438 40.417969 581.207031 C -13.507812 469.382812 -13.507812 340.722656 40.417969 228.898438 C 60.523438 187.210938 85.445312 152.234375 118.796875 118.875 C 152.148438 85.519531 187.128906 60.601562 228.820312 40.5 C 340.644531 -13.429688 469.304688 -13.429688 581.128906 40.5 C 622.816406 60.605469 657.792969 85.523438 691.152344 118.875 C 724.507812 152.230469 749.425781 187.207031 769.527344 228.898438 C 823.457031 340.722656 823.457031 469.382812 769.527344 581.207031 C 749.425781 622.894531 724.503906 657.875 691.152344 691.230469 C 664.300781 718.085938 638.261719 738.066406 605.988281 756.582031 C 538.96875 795.035156 461.257812 813.523438 383.558594 809.492188 Z M 443.359375 706.714844 C 465.5625 703.699219 484.019531 699.34375 504.328125 692.328125 C 607.304688 656.757812 683.222656 568.910156 703.683594 461.652344 C 707.664062 440.796875 708.503906 430.929688 708.503906 405.058594 C 708.503906 379.1875 707.664062 369.316406 703.683594 348.460938 C 680.234375 225.558594 584.472656 129.792969 461.566406 106.34375 C 440.710938 102.363281 430.839844 101.523438 404.96875 101.523438 C 379.097656 101.523438 369.230469 102.363281 348.375 106.34375 C 225.46875 129.792969 129.707031 225.558594 106.257812 348.460938 C 102.277344 369.316406 101.4375 379.1875 101.4375 405.058594 C 101.4375 430.929688 102.277344 440.796875 106.257812 461.652344 C 131.148438 592.132812 238.078125 691.828125 369.355469 706.96875 C 385.722656 708.855469 385.722656 708.855469 409.328125 708.582031 C 426.035156 708.390625 434.414062 707.929688 443.363281 706.714844 Z M 354.3125 481.046875 L 354.3125 354.398438 L 455.632812 354.398438 L 455.632812 607.695312 L 354.3125 607.695312 Z M 395.632812 302.550781 C 375.039062 298.816406 358.761719 281.894531 355.28125 260.597656 C 354.171875 253.804688 354.171875 252.355469 355.28125 245.566406 C 358.902344 223.394531 375.285156 207.011719 397.457031 203.386719 C 404.25 202.277344 405.695312 202.277344 412.488281 203.386719 C 434.660156 207.011719 451.042969 223.394531 454.664062 245.566406 C 455.773438 252.355469 455.773438 253.804688 454.664062 260.597656 C 451.152344 282.085938 434.898438 298.84375 413.949219 302.578125 C 406.425781 303.917969 403.160156 303.914062 395.632812 302.550781 Z M 395.632812 302.550781 " fill-opacity="1" fill-rule="nonzero"/></svg>