<svg xmlns="http://www.w3.org/2000/svg" xmlns:xlink="http://www.w3.org/1999/xlink" viewBox="0,0,256,256" width="50px" height="50px" fill-rule="nonzero"><g fill="#ffffff" fill-rule="nonzero" stroke="none" stroke-width="1" stroke-linecap="butt" stroke-linejoin="miter" stroke-miterlimit="10" stroke-dasharray="" stroke-dashoffset="0" font-family="none" font-weight="none" font-size="none" text-anchor="none" style="mix-blend-mode: normal"><g transform="scale(5.12,5.12)"><path d="M22,5c-10.967,0 -20,9.033 -20,20c0,10.967 9.033,20 20,20c8.165,0 15.03294,-5.06042 18.08594,-12.10742l0.00977,-0.00977c1.37,-2.655 5.91709,-13.39095 7.49609,-18.00195c0.168,-0.502 0.4082,-1.31778 0.4082,-2.42578c0,-4.046 -3.27236,-7.45508 -7.31836,-7.45508zM22,9c8.656,0 15,7.344 15,16c0,8.656 -6.344,16 -15,16c-8.656,0 -16,-7.344 -16,-16c0,-8.656 7.344,-16 16,-16zM20.3457,11c-1.154,0 -1.83516,0.78442 -1.91016,1.98242c-0.037,0.592 -0.26692,0.98978 -0.66992,1.42578c-0.718,0.775 -1.61302,1.46105 -1.79102,2.62305c-0.211,1.373 -0.45425,2.74123 -0.65625,4.11523c-0.097,0.657 -0.16064,1.32428 -0.18164,1.98828c-0.022,0.706 0.16867,1.44823 0.01367,2.11523c-0.375,1.609 -0.9287,3.17439 -1.3457,4.77539c-0.192,0.735 -0.50064,1.26059 -1.18164,1.68359c-1.54,0.956 -1.9757,2.38159 -1.3457,3.93359c0.285,0.703 0.96683,1.06406 1.67383,0.91406c0.792,-0.167 0.69266,-0.72802 0.59766,-1.29102c-0.101,-0.603 0.31689,-0.63152 0.71289,-0.60352c0.759,0.054 1.19975,-0.27152 1.46875,-0.97852c0.8,-2.1 1.63089,-4.18934 2.46289,-6.27734c0.327,-0.821 0.65052,-0.91534 1.22852,-0.27734c0.994,1.097 1.92781,2.24886 2.88281,3.38086c0.06,0.071 0.10986,0.16391 0.13086,0.25391c0.388,1.679 0.85295,3.34497 1.12695,5.04297c0.196,1.211 1.00005,2.12931 2.24805,2.19531c0.349,0.018 0.82039,0.02087 1.02539,-0.20312c0.133,-0.146 -0.03098,-0.6958 -0.20898,-0.9668c-0.659,-1.004 -0.80183,-2.10448 -0.92383,-3.27148c-0.206,-1.956 -0.31345,-3.98406 -1.81445,-5.53906c-0.422,-0.437 -0.81978,-0.90389 -0.42578,-1.58789c0.056,-0.097 0.01741,-0.31216 -0.05859,-0.41016c-0.697,-0.908 -1.34353,-1.86878 -2.14453,-2.67578c-0.523,-0.527 -0.71908,-0.90569 -0.33008,-1.55469c0.192,-0.32 0.39873,-0.68111 0.42773,-1.03711c0.06,-0.737 0.39714,-1.00919 1.11914,-1.11719c1.024,-0.153 2.11364,-0.24047 2.80664,-1.23047c0.104,-0.148 0.45548,-0.24045 0.64648,-0.18945c0.721,0.193 1.16047,0.02911 1.23047,-0.83789l0.66602,-0.15234c0.565,-0.28 0.95675,-0.46997 1.34375,-0.66797c0.453,-0.231 0.88442,-0.51545 1.35742,-0.68945c0.414,-0.152 0.87223,-0.18386 1.24023,-0.25586c-0.176,-0.383 -0.33966,-0.73444 -0.47266,-1.02344c-0.888,0 -1.81856,0.24864 -2.47656,-0.06836c-0.693,-0.335 -1.25791,-0.13006 -1.87891,-0.16406c-0.428,-0.023 -0.93062,0.0418 -1.26562,-0.1582c-0.917,-0.548 -1.686,-0.1675 -2.5,0.1875c-0.199,0.087 -0.44206,0.07247 -0.66406,0.10547c-0.02,-0.243 -0.07269,-0.48852 -0.05469,-0.72852c0.027,-0.372 0.21167,-0.76442 0.13867,-1.10742c-0.236,-1.103 -1.20905,-1.6582 -2.24805,-1.6582zM23.33008,15.87305c0.29687,0.00782 0.62564,0.09334 0.97852,0.26172c-0.671,0.312 -1.23541,0.59113 -1.81641,0.82813c-0.109,0.044 -0.31597,-0.04567 -0.41797,-0.13867c-0.047,-0.042 0.01789,-0.26614 0.08789,-0.36914c0.26812,-0.39313 0.67318,-0.59506 1.16797,-0.58203z"></path></g></g></svg>